<?xml version="1.0" standalone="no"?>
<!DOCTYPE svg PUBLIC "-//W3C//DTD SVG 20010904//EN"
 "http://www.w3.org/TR/2001/REC-SVG-20010904/DTD/svg10.dtd">
<svg version="1.0" xmlns="http://www.w3.org/2000/svg"
 width="992.000000pt" height="992.000000pt" viewBox="0 0 992.000000 992.000000"
 preserveAspectRatio="xMidYMid meet">
<metadata>
Created by potrace 1.14, written by Peter Selinger 2001-2017
</metadata>
<g transform="translate(0.000000,992.000000) scale(0.100000,-0.100000)"
fill="#000000" stroke="none">
<path d="M1740 9828 c-2 -621 1 -1222 6 -1227 11 -11 1313 -8 1317 4 2 5 3
303 3 660 l-1 650 -663 3 -662 2 0 -92z"/>
<path d="M434 8271 c-2 -2 -4 -301 -4 -663 l0 -658 48 -1 c26 0 322 0 659 0
465 0 612 -3 615 -12 7 -19 1 -4548 -6 -4596 -6 -47 -14 -101 -22 -153 -3 -18
-6 -39 -6 -45 -1 -7 -5 -13 -10 -13 -5 0 -7 -4 -4 -8 6 -9 -15 -87 -27 -98 -4
-4 -7 -14 -7 -21 0 -21 -72 -173 -81 -173 -5 0 -8 -3 -7 -7 4 -13 -57 -95
-114 -153 -73 -75 -137 -122 -216 -162 -37 -18 -69 -36 -72 -39 -16 -21 -272
-90 -380 -103 -19 -3 -35 -5 -35 -6 0 -3 -113 -10 -215 -14 -58 -3 -108 -5
-113 -5 -4 -1 -6 -299 -5 -663 l3 -662 75 1 c75 1 265 11 330 18 120 11 181
19 240 30 14 3 39 7 55 10 17 3 41 7 55 10 14 3 36 8 50 10 36 6 60 11 110 25
25 7 52 13 60 15 8 2 53 15 100 30 242 76 493 197 657 317 29 21 55 38 58 38
3 0 13 8 23 18 31 29 94 82 98 82 5 0 155 150 189 190 45 53 97 119 136 175
51 72 140 225 131 225 -4 0 -2 4 3 8 12 8 57 101 82 167 8 22 21 54 28 70 12
28 27 70 31 88 1 4 2 8 4 10 1 1 3 9 5 17 1 8 12 48 24 88 13 41 20 76 17 80
-3 3 -2 10 3 16 5 6 12 27 15 46 3 19 8 46 11 60 10 46 14 74 19 125 3 28 9
75 12 105 8 64 12 6179 4 6181 -15 4 -2622 3 -2626 0z"/>
<path d="M5963 8237 c-2 -4 -9 -5 -14 -2 -5 4 -9 1 -9 -4 0 -6 -6 -11 -14 -11
-27 0 -418 -187 -436 -209 -3 -3 -21 -15 -40 -25 -40 -22 -285 -184 -315 -208
-11 -9 -60 -49 -110 -89 -176 -142 -372 -336 -490 -484 -16 -20 -35 -42 -40
-49 -6 -6 -29 -36 -53 -66 -23 -30 -46 -60 -52 -67 -5 -7 -10 -16 -10 -22 0
-5 -4 -11 -8 -13 -23 -9 -180 -263 -264 -428 -33 -63 -62 -119 -66 -125 -4 -5
-7 -14 -8 -20 -3 -26 -17 -55 -27 -55 -6 0 -7 -3 -4 -6 3 -4 1 -16 -5 -28 -7
-11 -13 -23 -13 -26 -1 -3 -6 -16 -12 -30 -6 -14 -25 -65 -43 -115 -18 -49
-35 -97 -38 -105 -6 -16 -8 -25 -16 -55 -3 -11 -19 -66 -34 -122 -16 -57 -27
-103 -25 -103 2 0 -1 -9 -7 -20 -6 -10 -13 -41 -16 -67 -3 -26 -8 -52 -12 -57
-3 -6 -7 -22 -8 -36 -4 -33 -12 -88 -19 -124 -12 -58 -21 -165 -28 -317 -3
-48 -8 -92 -12 -98 -4 -7 -2 -18 4 -25 6 -7 9 -15 7 -17 -10 -10 -5 -236 8
-364 10 -101 18 -169 23 -190 2 -11 6 -38 9 -60 3 -22 12 -68 20 -103 7 -34
13 -66 12 -70 0 -4 1 -14 4 -22 5 -13 60 -221 64 -242 1 -5 3 -10 4 -13 1 -3
3 -8 4 -12 1 -5 13 -39 26 -78 13 -38 25 -72 25 -75 3 -11 19 -50 61 -152 24
-59 44 -112 44 -118 0 -5 5 -10 10 -10 6 0 10 -6 10 -13 0 -7 14 -39 31 -72
17 -33 47 -90 66 -128 19 -37 39 -70 44 -73 5 -3 7 -10 4 -15 -4 -5 -1 -9 4
-9 6 0 11 -7 11 -15 0 -8 5 -15 10 -15 6 0 10 -7 10 -15 0 -8 5 -15 10 -15 6
0 10 -5 10 -10 0 -15 149 -238 187 -280 7 -8 35 -42 61 -75 53 -68 59 -76 120
-143 88 -96 180 -189 262 -262 47 -41 90 -79 96 -85 6 -5 26 -21 44 -35 18
-14 38 -30 44 -35 22 -21 132 -102 164 -120 17 -11 32 -23 32 -27 0 -4 6 -8
14 -8 8 0 16 -3 18 -7 7 -17 282 -176 383 -222 22 -10 74 -34 115 -53 66 -31
207 -88 250 -101 8 -2 20 -6 25 -8 6 -1 39 -13 74 -26 35 -12 67 -20 72 -17 5
3 9 0 9 -7 0 -7 3 -9 6 -6 4 3 14 2 23 -2 9 -5 30 -11 46 -15 17 -3 75 -16
130 -30 55 -13 116 -27 135 -30 19 -2 46 -7 60 -10 14 -3 44 -7 65 -10 22 -2
60 -6 85 -10 25 -3 70 -9 100 -12 131 -17 604 -9 735 12 22 3 56 8 75 9 19 2
35 4 35 5 0 2 26 7 75 14 49 7 254 58 335 83 81 25 329 115 340 123 6 4 21 11
35 15 29 9 224 105 325 160 167 92 481 307 607 417 14 13 36 31 48 41 l22 19
-21 22 c-12 12 -21 25 -21 28 0 4 -9 17 -20 30 -11 12 -56 70 -100 128 -44 58
-83 110 -88 115 -4 6 -37 48 -72 95 -35 47 -66 87 -69 90 -4 3 -19 24 -35 48
-16 23 -33 42 -37 42 -5 0 -9 5 -9 11 0 6 -21 36 -46 67 -68 85 -68 85 -87
115 -18 28 -48 66 -74 93 -7 7 -13 17 -13 23 0 6 -3 11 -8 11 -4 0 -18 18 -32
40 -28 45 -37 48 -66 22 -10 -9 -39 -33 -64 -52 -25 -19 -47 -37 -50 -40 -3
-3 -12 -9 -21 -15 -9 -5 -51 -34 -94 -62 -43 -29 -80 -53 -82 -53 -3 0 -17 -9
-33 -20 -47 -33 -395 -201 -413 -199 -1 0 -9 -2 -17 -5 -48 -17 -205 -66 -223
-70 -12 -2 -40 -9 -62 -15 -22 -6 -57 -13 -79 -17 -21 -3 -48 -8 -60 -10 -115
-26 -496 -25 -616 0 -14 3 -43 8 -65 11 -22 2 -55 9 -73 14 -18 5 -35 10 -37
10 -19 2 -77 18 -205 56 -5 2 -14 5 -105 40 -88 34 -211 93 -284 137 -34 21
-66 38 -70 38 -5 0 -16 9 -26 20 -10 11 -24 20 -32 20 -7 0 -13 5 -13 10 0 6
-6 10 -14 10 -8 0 -16 3 -18 8 -1 4 -25 24 -53 45 -139 104 -282 244 -397 388
-46 57 -118 158 -118 166 0 3 -6 14 -14 22 -29 35 -123 214 -165 317 -18 43
-36 88 -41 99 -8 18 -30 84 -37 110 -52 201 -63 251 -68 311 -1 11 -4 24 -6
30 -3 5 -4 20 -3 34 1 14 -2 30 -6 35 -8 11 -6 412 3 485 3 25 10 77 17 115 7
39 14 84 17 100 3 17 9 38 14 47 5 9 8 21 7 25 -2 7 35 138 49 173 3 8 7 20 8
26 2 6 10 27 18 45 8 19 27 63 42 99 52 120 194 368 217 378 5 2 8 8 8 13 0 9
10 21 56 73 13 15 24 30 24 33 0 21 288 302 350 341 14 9 27 19 30 23 9 10
164 116 203 138 20 12 54 31 75 43 l37 23 1505 1 c828 1 1510 3 1515 3 12 1
14 1305 2 1317 -11 11 -147 11 -147 1 0 -5 -6 -5 -12 -1 -17 11 -308 11 -308
1 0 -5 -6 -5 -12 0 -19 11 -152 10 -160 -2 -5 -7 -8 -7 -8 0 0 12 -219 13
-238 1 -7 -4 -12 -2 -12 4 0 7 -6 8 -18 1 -10 -5 -23 -7 -29 -3 -15 9 -196 7
-211 -2 -7 -4 -12 -4 -12 1 0 4 -58 8 -130 8 -71 0 -130 -4 -130 -8 0 -5 -6
-5 -12 0 -19 11 -152 10 -160 -2 -5 -7 -8 -7 -8 0 0 12 -219 13 -238 1 -7 -4
-12 -2 -12 4 0 7 -6 8 -18 1 -10 -5 -23 -7 -29 -3 -15 9 -196 7 -211 -2 -7 -4
-12 -3 -12 1 0 12 -103 10 -112 -2 -5 -7 -8 -7 -8 0 0 12 -219 13 -238 1 -7
-4 -12 -2 -12 4 0 7 -6 8 -18 1 -10 -5 -23 -7 -29 -3 -15 9 -196 7 -211 -2 -7
-4 -12 -4 -12 1 0 10 -182 9 -198 -1 -7 -4 -12 -2 -12 4 0 7 -6 8 -19 1 -10
-6 -21 -7 -25 -4 -9 10 -247 10 -253 0z"/>
</g>
</svg>
